<svg width="21" height="21" viewBox="0 0 21 21" fill="none" xmlns="http://www.w3.org/2000/svg">
<path d="M10.9131 18.4873C6.49481 18.4873 2.91309 14.9056 2.91309 10.4873C2.91309 6.06903 6.49481 2.4873 10.9131 2.4873C15.3314 2.4873 18.9131 6.06903 18.9131 10.4873C18.9131 14.9056 15.3314 18.4873 10.9131 18.4873ZM10.9131 17.0328C14.528 17.0328 17.4585 14.1023 17.4585 10.4873C17.4585 6.87235 14.528 3.94185 10.9131 3.94185C7.29813 3.94185 4.36763 6.87235 4.36763 10.4873C4.36763 14.1023 7.29813 17.0328 10.9131 17.0328ZM9.48278 8.54683C9.34949 8.92573 8.93428 9.12484 8.55538 8.99155C8.17648 8.85826 7.97737 8.44305 8.11066 8.06415C8.58139 6.72601 9.94861 5.92248 11.3467 6.16229C12.7448 6.4021 13.7661 7.61532 13.764 9.03276C13.764 9.96347 13.2126 10.6987 12.3492 11.2743C11.8773 11.5889 11.4136 11.7949 11.0849 11.9045C10.7038 12.0315 10.292 11.8256 10.165 11.4446C10.0379 11.0635 10.2439 10.6516 10.6249 10.5246C10.6721 10.5089 10.7699 10.4716 10.9004 10.4136C11.1209 10.3157 11.341 10.1982 11.5424 10.064C12.0427 9.73047 12.3094 9.37478 12.3095 9.03168C12.3105 8.32242 11.7999 7.71581 11.1008 7.5959C10.4018 7.47599 9.71815 7.87776 9.48278 8.54683ZM10.9131 14.8509C10.5114 14.8509 10.1858 14.5253 10.1858 14.1237C10.1858 13.722 10.5114 13.3964 10.9131 13.3964C11.3147 13.3964 11.6404 13.722 11.6404 14.1237C11.6404 14.5253 11.3147 14.8509 10.9131 14.8509Z" fill="#999999"/>
</svg>
