<svg width="21" height="21" viewBox="0 0 21 21" fill="none" xmlns="http://www.w3.org/2000/svg">
<path fill-rule="evenodd" clip-rule="evenodd" d="M4.39242 2.99805C3.51796 2.99805 2.80908 3.70693 2.80908 4.58138V7.91471C2.80908 8.78916 3.51796 9.49805 4.39242 9.49805H7.72575C8.6002 9.49805 9.30908 8.78916 9.30908 7.91471V4.58138C9.30908 3.70693 8.6002 2.99805 7.72575 2.99805H4.39242ZM4.30908 4.58138C4.30908 4.53536 4.34639 4.49805 4.39242 4.49805H7.72575C7.77177 4.49805 7.80908 4.53536 7.80908 4.58138V7.91471C7.80908 7.96074 7.77177 7.99805 7.72575 7.99805H4.39242C4.34639 7.99805 4.30908 7.96074 4.30908 7.91471V4.58138Z" fill="black"/>
<path fill-rule="evenodd" clip-rule="evenodd" d="M12.7254 2.99805C11.851 2.99805 11.1421 3.70693 11.1421 4.58138V7.91471C11.1421 8.78916 11.851 9.49805 12.7254 9.49805H16.0588C16.9332 9.49805 17.6421 8.78916 17.6421 7.91471V4.58138C17.6421 3.70693 16.9332 2.99805 16.0588 2.99805H12.7254ZM12.6421 4.58138C12.6421 4.53536 12.6794 4.49805 12.7254 4.49805H16.0588C16.1048 4.49805 16.1421 4.53536 16.1421 4.58138V7.91471C16.1421 7.96074 16.1048 7.99805 16.0588 7.99805H12.7254C12.6794 7.99805 12.6421 7.96074 12.6421 7.91471V4.58138Z" fill="black"/>
<path fill-rule="evenodd" clip-rule="evenodd" d="M2.80908 12.9149C2.80908 12.0404 3.51796 11.3315 4.39242 11.3315H7.72575C8.6002 11.3315 9.30908 12.0404 9.30908 12.9149V16.2482C9.30908 17.1227 8.6002 17.8315 7.72575 17.8315H4.39242C3.51796 17.8315 2.80908 17.1227 2.80908 16.2482V12.9149ZM4.39242 12.8315C4.34639 12.8315 4.30908 12.8689 4.30908 12.9149V16.2482C4.30908 16.2942 4.34639 16.3315 4.39242 16.3315H7.72575C7.77177 16.3315 7.80908 16.2942 7.80908 16.2482V12.9149C7.80908 12.8689 7.77177 12.8315 7.72575 12.8315H4.39242Z" fill="black"/>
<path fill-rule="evenodd" clip-rule="evenodd" d="M12.7254 11.3315C11.851 11.3315 11.1421 12.0404 11.1421 12.9149V16.2482C11.1421 17.1227 11.851 17.8315 12.7254 17.8315H16.0588C16.9332 17.8315 17.6421 17.1227 17.6421 16.2482V12.9149C17.6421 12.0404 16.9332 11.3315 16.0588 11.3315H12.7254ZM12.6421 12.9149C12.6421 12.8689 12.6794 12.8315 12.7254 12.8315H16.0588C16.1048 12.8315 16.1421 12.8689 16.1421 12.9149V16.2482C16.1421 16.2942 16.1048 16.3315 16.0588 16.3315H12.7254C12.6794 16.3315 12.6421 16.2942 12.6421 16.2482V12.9149Z" fill="black"/>
</svg>
