<svg width="27" height="26" viewBox="0 0 27 26" fill="none" xmlns="http://www.w3.org/2000/svg">
<path d="M19.1027 6.54004H15.5005C14.962 6.54004 14.5255 6.12031 14.5255 5.60254C14.5255 5.08477 14.962 4.66504 15.5005 4.66504H21.3505C21.3633 4.66504 21.3761 4.66528 21.3889 4.66575C21.6312 4.65632 21.8768 4.74057 22.0619 4.9185C22.2469 5.09644 22.3346 5.33259 22.3247 5.56565C22.3252 5.57788 22.3255 5.59018 22.3255 5.60254V11.2275C22.3255 11.7453 21.889 12.165 21.3505 12.165C20.812 12.165 20.3755 11.7453 20.3755 11.2275V7.76388L12.1619 15.6616C11.8104 15.9995 11.2406 15.9995 10.8891 15.6616C10.5376 15.3236 10.5376 14.7757 10.8891 14.4377L19.1027 6.54004ZM17.8902 14.2239C17.8902 13.7366 18.301 13.3415 18.8078 13.3415C19.3146 13.3415 19.7255 13.7366 19.7255 14.2239V19.518C19.7255 20.9799 18.493 22.165 16.9725 22.165H6.87843C5.35802 22.165 4.12549 20.9799 4.12549 19.518V9.8121C4.12549 8.35017 5.35802 7.16504 6.87843 7.16504H12.3843C12.8911 7.16504 13.302 7.56008 13.302 8.04739C13.302 8.5347 12.8911 8.92974 12.3843 8.92974H6.87843C6.37163 8.92974 5.96078 9.32479 5.96078 9.8121V19.518C5.96078 20.0053 6.37163 20.4003 6.87843 20.4003H16.9725C17.4794 20.4003 17.8902 20.0053 17.8902 19.518V14.2239Z" fill="black"/>
</svg>
