<svg width="47" height="33" viewBox="0 0 47 33" fill="none" xmlns="http://www.w3.org/2000/svg">
<path d="M46.2254 1.4873H42.5734C40.7245 1.48733 39.5023 1.93552 38.1743 5.38836C36.8463 8.8412 35.297 13.3564 34.6883 15.1825M34.6883 15.1825L31.7832 29.2926C31.5619 30.178 30.4346 30.9526 29.3058 29.2926C28.177 27.6326 24.6452 22.1545 22.8191 19.3325M34.6883 15.1825L31.2769 16.3752M22.8191 19.3325L31.2769 16.3752M22.8191 19.3325L21.7731 19.6938M14.1879 22.3137L21.7731 19.6938M31.2769 6.19477V16.3752M21.7731 19.6938L10.4106 14.6228C8.77939 13.7846 5.40814 10.9254 4.97314 6.19477" stroke="black" stroke-width="1.5"/>
<circle cx="7.82769" cy="24.4781" r="6.8648" stroke="black" stroke-width="1.5"/>
<circle cx="7.82784" cy="24.4782" r="2.17501" stroke="black" stroke-width="1.5"/>
<rect x="1.72461" y="1.87793" width="31.1975" height="4.01013" rx="2.00506" stroke="black" stroke-width="1.5"/>
</svg>
