<svg width="36" height="36" viewBox="0 0 36 36" fill="none" xmlns="http://www.w3.org/2000/svg">
<circle cx="17.8882" cy="18.0464" r="17.3882" fill="white" stroke="white"/>
<path d="M16.1489 6.8619C16.9153 5.51115 18.8616 5.51115 19.628 6.8619L21.9801 11.0077C22.265 11.5098 22.753 11.8643 23.3186 11.9801L27.9883 12.936C29.5097 13.2474 30.1112 15.0985 29.0633 16.2448L25.8473 19.7629C25.4578 20.189 25.2714 20.7626 25.3361 21.3363L25.87 26.0729C26.044 27.6161 24.4693 28.7601 23.0554 28.1178L18.7157 26.1464C18.19 25.9076 17.5869 25.9076 17.0613 26.1464L12.7215 28.1178C11.3076 28.7601 9.73296 27.6161 9.90692 26.0729L10.4408 21.3363C10.5055 20.7626 10.3191 20.189 9.92958 19.7629L6.71358 16.2448C5.66576 15.0985 6.26721 13.2474 7.78866 12.936L12.4584 11.9801C13.0239 11.8643 13.5119 11.5098 13.7968 11.0077L16.1489 6.8619Z" fill="#7E40BB"/>
</svg>
