<svg width="36" height="37" viewBox="0 0 36 37" fill="none" xmlns="http://www.w3.org/2000/svg">
<circle cx="18.0713" cy="18.3657" r="17.8882" fill="white"/>
<path d="M16.9844 7.55134C17.4633 6.70712 18.6798 6.70712 19.1588 7.55134L21.5109 11.6971C21.9026 12.3875 22.5736 12.875 23.3513 13.0342L28.0209 13.9901C28.9719 14.1847 29.3478 15.3417 28.6929 16.0581L25.4769 19.5762C24.9413 20.1621 24.685 20.9508 24.7739 21.7397L25.3078 26.4762C25.4165 27.4407 24.4324 28.1557 23.5487 27.7543L19.209 25.7828C18.4862 25.4545 17.6569 25.4545 16.9342 25.7828L12.5944 27.7543C11.7107 28.1557 10.7266 27.4407 10.8353 26.4762L11.3692 21.7397C11.4581 20.9508 11.2018 20.1621 10.6662 19.5762L7.45025 16.0581C6.79536 15.3417 7.17127 14.1847 8.12218 13.9901L12.7919 13.0342C13.5696 12.875 14.2405 12.3875 14.6322 11.6971L16.9844 7.55134Z" stroke="#7E40BB" stroke-width="1.5" stroke-linecap="round" stroke-linejoin="round"/>
</svg>
