<svg width="25" height="25" viewBox="0 0 25 25" fill="none" xmlns="http://www.w3.org/2000/svg">
<path d="M18.2256 22.415C17.3923 22.415 16.6839 22.1234 16.1006 21.54C15.5173 20.9567 15.2256 20.2484 15.2256 19.415C15.2256 19.2984 15.2339 19.1775 15.2506 19.0525C15.2673 18.9275 15.2923 18.815 15.3256 18.715L8.27559 14.615C7.99225 14.865 7.67559 15.0609 7.32559 15.2025C6.97559 15.3442 6.60892 15.415 6.22559 15.415C5.39225 15.415 4.68392 15.1234 4.10059 14.54C3.51725 13.9567 3.22559 13.2484 3.22559 12.415C3.22559 11.5817 3.51725 10.8734 4.10059 10.29C4.68392 9.70671 5.39225 9.41504 6.22559 9.41504C6.60892 9.41504 6.97559 9.48587 7.32559 9.62754C7.67559 9.76921 7.99225 9.96504 8.27559 10.215L15.3256 6.11504C15.2923 6.01504 15.2673 5.90254 15.2506 5.77754C15.2339 5.65254 15.2256 5.53171 15.2256 5.41504C15.2256 4.58171 15.5173 3.87337 16.1006 3.29004C16.6839 2.70671 17.3923 2.41504 18.2256 2.41504C19.0589 2.41504 19.7673 2.70671 20.3506 3.29004C20.9339 3.87337 21.2256 4.58171 21.2256 5.41504C21.2256 6.24837 20.9339 6.95671 20.3506 7.54004C19.7673 8.12337 19.0589 8.41504 18.2256 8.41504C17.8423 8.41504 17.4756 8.34421 17.1256 8.20254C16.7756 8.06087 16.4589 7.86504 16.1756 7.61504L9.12559 11.715C9.15892 11.815 9.18392 11.9275 9.20059 12.0525C9.21725 12.1775 9.22559 12.2984 9.22559 12.415C9.22559 12.5317 9.21725 12.6525 9.20059 12.7775C9.18392 12.9025 9.15892 13.015 9.12559 13.115L16.1756 17.215C16.4589 16.965 16.7756 16.7692 17.1256 16.6275C17.4756 16.4859 17.8423 16.415 18.2256 16.415C19.0589 16.415 19.7673 16.7067 20.3506 17.29C20.9339 17.8734 21.2256 18.5817 21.2256 19.415C21.2256 20.2484 20.9339 20.9567 20.3506 21.54C19.7673 22.1234 19.0589 22.415 18.2256 22.415ZM18.2256 6.41504C18.5089 6.41504 18.7464 6.31921 18.9381 6.12754C19.1298 5.93587 19.2256 5.69837 19.2256 5.41504C19.2256 5.13171 19.1298 4.89421 18.9381 4.70254C18.7464 4.51087 18.5089 4.41504 18.2256 4.41504C17.9423 4.41504 17.7048 4.51087 17.5131 4.70254C17.3214 4.89421 17.2256 5.13171 17.2256 5.41504C17.2256 5.69837 17.3214 5.93587 17.5131 6.12754C17.7048 6.31921 17.9423 6.41504 18.2256 6.41504ZM6.22559 13.415C6.50892 13.415 6.74642 13.3192 6.93809 13.1275C7.12975 12.9359 7.22559 12.6984 7.22559 12.415C7.22559 12.1317 7.12975 11.8942 6.93809 11.7025C6.74642 11.5109 6.50892 11.415 6.22559 11.415C5.94225 11.415 5.70475 11.5109 5.51309 11.7025C5.32142 11.8942 5.22559 12.1317 5.22559 12.415C5.22559 12.6984 5.32142 12.9359 5.51309 13.1275C5.70475 13.3192 5.94225 13.415 6.22559 13.415ZM18.2256 20.415C18.5089 20.415 18.7464 20.3192 18.9381 20.1275C19.1298 19.9359 19.2256 19.6984 19.2256 19.415C19.2256 19.1317 19.1298 18.8942 18.9381 18.7025C18.7464 18.5109 18.5089 18.415 18.2256 18.415C17.9423 18.415 17.7048 18.5109 17.5131 18.7025C17.3214 18.8942 17.2256 19.1317 17.2256 19.415C17.2256 19.6984 17.3214 19.9359 17.5131 20.1275C17.7048 20.3192 17.9423 20.415 18.2256 20.415Z" fill="black"/>
</svg>
