<svg width="156" height="66" viewBox="0 0 156 66" fill="none" xmlns="http://www.w3.org/2000/svg">
<path d="M51.5598 10.8785C51.5598 10.3766 51.4173 9.94639 51.1323 9.5879C50.8473 9.30111 50.4198 9.08602 49.9211 9.08602H44.8628V5.64453H50.7048C52.1297 5.64453 53.2696 6.07472 54.0533 6.86339C54.837 7.65206 55.2645 8.79923 55.2645 10.3049V20.1991L51.5598 20.4142V10.8068V10.8785Z" fill="#204E37"/>
<path d="M57.3311 18.3348C59.2547 17.9763 60.7508 17.6895 61.7482 17.4027L58.9697 8.79899L58.0435 7.00655C59.0409 6.43297 60.1808 5.93108 61.392 5.4292C61.7482 5.85939 62.0332 6.28957 62.1757 6.71976C62.3894 7.22164 62.6031 7.79522 62.8169 8.5122L65.0967 15.9688C65.8091 15.3952 66.3791 14.6782 66.6641 13.7461C66.949 12.8141 67.1628 11.5952 67.1628 10.0178C67.1628 8.4405 67.0203 7.50843 66.8065 6.14618C67.804 5.85938 69.0864 5.71599 70.5113 5.57259C70.725 6.57636 70.7962 7.79522 70.7962 9.22917C70.7962 12.0254 70.3688 14.1763 69.5851 15.7537C68.8014 17.331 67.519 18.5499 65.6666 19.4819C63.8143 20.414 61.1782 21.131 57.7585 21.7763C57.5448 20.1989 57.4023 19.0517 57.3311 18.3348Z" fill="#204E37"/>
<path d="M76.2111 9.15731H73.4326V5.71582H79.9871V14.8214L76.2111 15.0365V9.08561V9.15731Z" fill="#204E37"/>
<path d="M19.9987 31.3839H17.2202V27.9424H23.7747V37.048L19.9987 37.2631V31.3122V31.3839Z" fill="#204E37"/>
<path d="M26.0552 39.1271H30.1873V31.3121H27.0526V27.8706H33.8921V42.4969H26.0552V39.0554V39.1271Z" fill="#204E37"/>
<path d="M39.3773 31.3839H36.7412V27.9424H43.082V42.4253L39.3773 42.6404V31.3122V31.3839Z" fill="#204E37"/>
<path d="M52.5578 33.1045C52.5578 32.6026 52.4153 32.1725 52.1303 31.814C51.8454 31.5272 51.4179 31.3121 50.9192 31.3121H45.8608V27.8706H51.7029C53.1278 27.8706 54.2677 28.3008 55.0514 29.0895C55.835 29.8781 56.2625 31.0253 56.2625 32.531V42.4252L52.5578 42.6403V33.0328V33.1045Z" fill="#204E37"/>
<path d="M61.3205 31.3839H58.542V27.9424H65.0965V37.048L61.3205 37.2631V31.3122V31.3839Z" fill="#204E37"/>
<path d="M66.8066 40.5613C68.7302 40.2028 70.2264 39.9161 71.2238 39.6293L68.4453 31.0256L67.5191 29.2331C68.5165 28.6595 69.6564 28.1576 70.8676 27.6558C71.2238 28.0859 71.5088 28.5161 71.6513 28.9463C71.865 29.4482 72.0787 30.0218 72.2925 30.7388L74.5723 38.1953C75.2847 37.6217 75.8547 36.9048 76.1397 35.9727C76.4246 35.0406 76.6384 33.8218 76.6384 32.2444C76.6384 30.6671 76.4959 29.735 76.2821 28.3727C77.2796 28.0859 78.562 27.9426 79.9868 27.7992C80.2006 28.8029 80.2718 30.0218 80.2718 31.4557C80.2718 34.2519 79.8444 36.4029 79.0607 37.9802C78.277 39.5576 76.9946 40.7764 75.1422 41.7085C73.2899 42.6406 70.6538 43.3575 67.2341 44.0028C67.0204 42.4255 66.8779 41.2783 66.8066 40.5613Z" fill="#204E37"/>
<path d="M3.54171 53.6104H0.763184V50.1689H7.31766V59.2745L3.54171 59.4896V53.5387V53.6104Z" fill="#204E37"/>
<path d="M11.3069 62.5719C11.8768 61.9983 12.5893 61.353 13.3729 60.6361C14.3704 59.704 15.0828 58.987 15.5815 58.5568C16.0802 58.1267 16.3652 57.6248 16.6502 57.1229C16.9352 56.621 17.0064 56.1191 17.0064 55.5455V53.6814H10.0957V46.4399H13.8004V50.2399H20.7111V54.972C20.7111 56.2625 20.4974 57.4814 19.9987 58.4851C19.5 59.4889 18.8588 60.421 18.0751 61.2814C17.2914 62.1417 16.0802 63.2889 14.4416 64.7945L13.4442 65.7266C12.803 64.8662 12.0905 63.8625 11.3781 62.6436L11.3069 62.5719Z" fill="#204E37"/>
<path d="M24.4161 64.9379L23.7036 52.1041V50.455L27.2658 50.2399L27.907 61.4247C28.9757 61.4247 29.9019 61.2097 30.7568 60.7078C31.6117 60.2776 32.2529 59.5606 32.6804 58.7719C33.1079 57.9833 33.3928 56.9795 33.3928 55.904C33.3928 54.255 32.7516 53.4663 31.4692 53.4663C30.1868 53.4663 30.5431 53.6097 29.8306 53.8248L28.9757 50.8852C29.4032 50.5984 29.9731 50.3833 30.5431 50.2399C31.113 50.0965 31.7542 49.9531 32.3954 49.9531C33.8203 49.9531 34.9602 50.455 35.8151 51.3871C36.6701 52.3191 37.0263 53.6814 37.0263 55.4021C37.0263 57.1229 36.5988 58.8436 35.7439 60.3493C34.889 61.8549 33.6778 63.0021 32.2529 63.7908C31.4692 64.221 30.5431 64.5077 29.4744 64.7228C28.4057 64.9379 27.2658 65.0813 26.0547 65.0813H24.3448V64.9379H24.4161Z" fill="#204E37"/>
<path d="M42.0134 53.6104H39.2349V50.1689H45.7893V59.2745L42.0134 59.4896V53.5387V53.6104Z" fill="#204E37"/>
<path d="M47.7132 61.784C49.7081 60.9953 51.4179 60.1349 52.8428 59.3462L52.2729 53.6104H48.9244V50.1689H55.4789L56.9038 64.15C55.8351 64.5802 54.6952 64.9387 53.6265 65.1538L53.3415 62.5726C51.8454 63.3613 50.0643 64.2934 47.7845 65.2971H47.4995C47.4995 64.0783 47.4995 62.8594 47.642 61.7123H47.7132V61.784Z" fill="#204E37"/>
<path d="M61.3918 53.6104H58.6133V50.1689H65.1678V59.2745L61.3918 59.4896V53.5387V53.6104Z" fill="#204E37"/>
<path d="M74.4295 53.6104H67.875V50.1689H80.7702L80.414 53.6104H78.1342V64.7236L74.4295 64.9387V53.6104Z" fill="#204E37"/>
<path d="M142.183 44.7914H133.064C132.28 44.7914 131.639 44.1461 131.639 43.3574C131.639 42.5688 132.28 41.9235 133.064 41.9235H142.183C147.811 41.9235 152.371 37.4065 152.371 31.8141C152.371 26.2217 148.737 22.6368 143.821 21.8481C143.394 21.8481 143.038 21.4897 142.824 21.1312C142.61 20.7727 142.61 20.2708 142.824 19.8406C143.251 18.9085 143.465 17.9048 143.465 16.901C143.465 12.8142 140.117 9.51615 136.056 9.51615C131.995 9.51615 132.066 10.3048 130.712 11.8105C130.356 12.169 129.929 12.3124 129.43 12.2407C128.931 12.169 128.575 11.8105 128.361 11.3803C126.367 6.64825 121.736 3.63695 116.606 3.63695C111.477 3.63695 103.853 9.30106 103.853 16.2557C103.853 23.2104 103.925 17.9765 104.138 18.8368C104.281 19.6255 103.853 20.3425 103.07 20.4859C98.2251 21.7047 94.8053 26.0066 94.8053 31.0254C94.8053 36.0443 99.7212 41.8518 105.777 41.8518H109.553C110.337 41.8518 110.978 42.4971 110.978 43.2857C110.978 44.0744 110.337 44.7197 109.553 44.7197H105.777C98.1538 44.7197 91.9556 38.5537 91.9556 31.0254C91.9556 23.4972 95.6603 20.0557 101.146 18.1199C101.075 17.5463 101.004 16.901 101.004 16.2557C101.004 7.72371 107.986 0.769043 116.606 0.769043C125.227 0.769043 127.364 3.78034 130.143 8.58408C131.852 7.36522 133.918 6.71995 136.056 6.71995C141.755 6.71995 146.315 11.3086 146.315 16.9727C146.315 22.6368 146.244 18.6217 146.03 19.4104C151.516 20.9878 155.363 26.0066 155.363 31.8141C155.363 37.6216 149.521 44.7914 142.325 44.7914H142.183Z" fill="#204E37"/>
<path d="M116.464 64.6518H111.334C110.551 64.6518 109.909 64.0065 109.909 63.2178C109.909 62.4291 110.551 61.7839 111.334 61.7839H115.039V40.9199L109.981 35.8293C109.411 35.2557 109.411 34.3954 109.981 33.8218C110.551 33.2482 111.406 33.2482 111.976 33.8218L117.461 39.3425C117.746 39.6293 117.889 39.9878 117.889 40.3463V63.2895C117.889 64.0782 117.248 64.7235 116.464 64.7235V64.6518Z" fill="#204E37"/>
<path d="M132.779 64.6512H127.578C126.795 64.6512 126.153 64.0059 126.153 63.2173V36.6891C126.153 36.3307 126.296 35.9722 126.581 35.6854L132.922 29.376C133.491 28.8024 134.418 28.8024 134.916 29.376C135.486 29.9496 135.486 30.8816 134.916 31.3835L129.003 37.2627V61.7116H132.779C133.563 61.7116 134.204 62.3569 134.204 63.1456C134.204 63.9342 133.563 64.5795 132.779 64.5795V64.6512Z" fill="#204E37"/>
<path d="M136.484 32.1724C133.848 32.1724 131.639 30.0215 131.639 27.3687C131.639 24.7159 133.776 22.5649 136.484 22.5649C139.191 22.5649 141.328 24.7159 141.328 27.3687C141.328 30.0215 139.191 32.1724 136.484 32.1724ZM136.484 25.4328C135.415 25.4328 134.489 26.2932 134.489 27.3687C134.489 28.4441 135.344 29.3045 136.484 29.3045C137.624 29.3045 138.479 28.4441 138.479 27.3687C138.479 26.2932 137.624 25.4328 136.484 25.4328Z" fill="#204E37"/>
<path d="M121.736 25.8629C119.1 25.8629 116.892 23.7119 116.892 21.0591C116.892 18.4063 119.029 16.2554 121.736 16.2554C124.444 16.2554 126.581 18.4063 126.581 21.0591C126.581 23.7119 124.444 25.8629 121.736 25.8629ZM121.736 19.1233C120.668 19.1233 119.741 19.9836 119.741 21.0591C119.741 22.1346 120.596 22.9949 121.736 22.9949C122.876 22.9949 123.731 22.1346 123.731 21.0591C123.731 19.9836 122.876 19.1233 121.736 19.1233Z" fill="#204E37"/>
<path d="M108.271 36.9761C105.635 36.9761 103.426 34.8252 103.426 32.1724C103.426 29.5196 105.564 27.3687 108.271 27.3687C110.978 27.3687 113.115 29.5196 113.115 32.1724C113.115 34.8252 110.978 36.9761 108.271 36.9761ZM108.271 30.2366C107.202 30.2366 106.276 31.0969 106.276 32.1724C106.276 33.2479 107.131 34.1082 108.271 34.1082C109.411 34.1082 110.266 33.2479 110.266 32.1724C110.266 31.0969 109.411 30.2366 108.271 30.2366Z" fill="#204E37"/>
<path d="M122.092 64.6512C121.308 64.6512 120.667 64.0059 120.667 63.2172V24.6439C120.667 23.8552 121.308 23.21 122.092 23.21C122.875 23.21 123.516 23.8552 123.516 24.6439V63.2172C123.516 64.0059 122.875 64.6512 122.092 64.6512Z" fill="#204E37"/>
</svg>
