<svg width="37" height="37" viewBox="0 0 37 37" fill="none" xmlns="http://www.w3.org/2000/svg">
<circle cx="18.1924" cy="18.3657" r="17.8882" fill="white"/>
<path d="M17.1055 7.55134C17.5844 6.70712 18.8009 6.70712 19.2799 7.55134L21.632 11.6971C22.0237 12.3875 22.6947 12.875 23.4723 13.0342L28.142 13.9901C29.093 14.1847 29.4689 15.3417 28.814 16.0581L25.598 19.5762C25.0624 20.1621 24.8061 20.9508 24.895 21.7397L25.4289 26.4762C25.5376 27.4407 24.5535 28.1557 23.6698 27.7543L19.3301 25.7828C18.6073 25.4545 17.778 25.4545 17.0553 25.7828L12.7155 27.7543C11.8318 28.1557 10.8477 27.4407 10.9564 26.4762L11.4903 21.7397C11.5792 20.9508 11.3229 20.1621 10.7873 19.5762L7.57134 16.0581C6.91646 15.3417 7.29236 14.1847 8.24327 13.9901L12.913 13.0342C13.6906 12.875 14.3616 12.3875 14.7533 11.6971L17.1055 7.55134Z" stroke="#7E40BB" stroke-width="1.5" stroke-linecap="round" stroke-linejoin="round"/>
</svg>
