<svg width="454" height="602" viewBox="0 0 454 602" fill="none" xmlns="http://www.w3.org/2000/svg">
<path d="M256.978 4.14438C178.755 -2.92475 99.8641 6.01953 21.575 10.953C11.9341 100.318 12.0328 150.994 13.1896 242.277C14.3779 336.042 14.8329 429.989 16.871 523.692C17.263 541.716 14.4101 591.197 27.6083 598.259C33.3412 601.326 45.0357 600.365 50.2078 600.365C70.6002 600.365 90.9892 600.518 111.359 598.259C209.33 587.392 307.432 597.411 405.459 592.782C419.364 592.126 452.192 592.782 452.192 587.085C453.85 571.043 452.794 519.381 452.192 503.892C450.205 452.74 449.964 401.4 449.329 350.125C448.009 243.584 444.723 144.399 440.298 27.4044C437.35 11.7897 411.165 14.5555 405.459 14.0445C389.71 12.634 373.954 11.6952 358.215 14.0445C324.677 19.0505 290.468 7.171 256.978 4.14438Z" fill="white"/>
<path d="M0.918457 12.1487C85.9722 7.71799 171.87 -3.54692 256.978 4.14438C290.468 7.171 324.677 19.0505 358.215 14.0445C373.954 11.6952 389.71 12.634 405.459 14.0445C411.165 14.5555 437.35 11.7897 440.298 27.4044C444.723 144.399 448.009 243.584 449.329 350.125C449.964 401.4 450.205 452.74 452.192 503.892C452.794 519.381 453.85 571.043 452.192 587.085C452.192 592.782 419.364 592.126 405.459 592.782C307.432 597.411 209.33 587.392 111.359 598.259C90.9892 600.518 70.6002 600.365 50.2078 600.365C45.0357 600.365 33.3412 601.326 27.6083 598.259C14.4101 591.197 17.263 541.716 16.871 523.692C14.8329 429.989 14.3779 336.042 13.1896 242.277C12.0328 150.994 11.9341 100.318 21.575 10.953" stroke="black" stroke-width="1.5" stroke-linecap="round"/>
</svg>
