<svg width="21" height="21" viewBox="0 0 21 21" fill="none" xmlns="http://www.w3.org/2000/svg">
<path d="M15.0511 14.1092L17.9913 17.0494C18.3037 17.3618 18.3037 17.8683 17.9913 18.1807C17.6789 18.4931 17.1723 18.4931 16.8599 18.1807L13.9197 15.2406C12.688 16.2259 11.1256 16.815 9.42559 16.815C5.44914 16.815 2.22559 13.5915 2.22559 9.61504C2.22559 5.63859 5.44914 2.41504 9.42559 2.41504C13.402 2.41504 16.6256 5.63859 16.6256 9.61504C16.6256 11.3151 16.0364 12.8775 15.0511 14.1092ZM13.4587 13.5002C14.4289 12.4932 15.0256 11.1238 15.0256 9.61504C15.0256 6.52224 12.5184 4.01504 9.42559 4.01504C6.33279 4.01504 3.82559 6.52224 3.82559 9.61504C3.82559 12.7078 6.33279 15.215 9.42559 15.215C10.9343 15.215 12.3037 14.6184 13.3107 13.6481C13.3318 13.6208 13.3548 13.5944 13.3799 13.5694C13.405 13.5443 13.4313 13.5212 13.4587 13.5002Z" fill="#7E40BB"/>
</svg>
