<svg width="21" height="21" viewBox="0 0 21 21" fill="none" xmlns="http://www.w3.org/2000/svg">
<path d="M6.72559 5.32413V4.59686C6.72559 3.39187 7.66579 2.41504 8.82559 2.41504H11.6256C12.7854 2.41504 13.7256 3.39187 13.7256 4.59686V5.32413H16.5256C16.9122 5.32413 17.2256 5.64974 17.2256 6.0514C17.2256 6.45306 16.9122 6.77868 16.5256 6.77868H15.8256V16.2332C15.8256 17.4382 14.8854 18.415 13.7256 18.415H6.72559C5.56579 18.415 4.62559 17.4382 4.62559 16.2332V6.77868H3.92559C3.53899 6.77868 3.22559 6.45306 3.22559 6.0514C3.22559 5.64974 3.53899 5.32413 3.92559 5.32413H6.72559ZM8.12559 5.32413H12.3256V4.59686C12.3256 4.1952 12.0122 3.86958 11.6256 3.86958H8.82559C8.43899 3.86958 8.12559 4.1952 8.12559 4.59686V5.32413ZM14.4256 6.77868H6.02559V16.2332C6.02559 16.6349 6.33899 16.9605 6.72559 16.9605H13.7256C14.1122 16.9605 14.4256 16.6349 14.4256 16.2332V6.77868Z" fill="black"/>
</svg>
