<svg width="16" height="16" viewBox="0 0 16 16" fill="none" xmlns="http://www.w3.org/2000/svg">
<path fill-rule="evenodd" clip-rule="evenodd" d="M8.41309 14.4232C11.6914 14.4232 14.349 11.7656 14.349 8.4873C14.349 5.20901 11.6914 2.55143 8.41309 2.55143C5.13479 2.55143 2.47721 5.20901 2.47721 8.4873C2.47721 11.7656 5.13479 14.4232 8.41309 14.4232ZM8.41309 15.9873C12.5552 15.9873 15.9131 12.6294 15.9131 8.4873C15.9131 4.34517 12.5552 0.987305 8.41309 0.987305C4.27095 0.987305 0.913086 4.34517 0.913086 8.4873C0.913086 12.6294 4.27095 15.9873 8.41309 15.9873Z" fill="#DFDFDF"/>
<path d="M11.8785 7.33065H10.2313C10.2012 7.11753 10.1398 6.92824 10.047 6.76276C9.95422 6.59477 9.83513 6.45186 9.68971 6.33402C9.54429 6.21618 9.3763 6.12592 9.18575 6.06324C8.99771 6.00056 8.79337 5.96922 8.57273 5.96922C8.17408 5.96922 7.82683 6.06825 7.53097 6.26632C7.23512 6.46189 7.00571 6.74771 6.84274 7.1238C6.67977 7.49738 6.59828 7.95119 6.59828 8.48523C6.59828 9.03432 6.67977 9.49565 6.84274 9.86923C7.00822 10.2428 7.23888 10.5249 7.53474 10.7154C7.83059 10.906 8.17283 11.0012 8.56145 11.0012C8.77958 11.0012 8.98141 10.9724 9.16695 10.9147C9.35499 10.8571 9.52172 10.7731 9.66714 10.6628C9.81256 10.5499 9.93291 10.4133 10.0282 10.2528C10.126 10.0924 10.1937 9.90934 10.2313 9.70375L11.8785 9.71127C11.8359 10.0648 11.7293 10.4058 11.5589 10.7342C11.3909 11.0602 11.164 11.3523 10.8781 11.6105C10.5948 11.8662 10.2563 12.0693 9.86271 12.2198C9.47158 12.3677 9.02905 12.4417 8.53512 12.4417C7.84814 12.4417 7.23387 12.2862 6.6923 11.9753C6.15325 11.6644 5.72702 11.2144 5.41361 10.6252C5.10271 10.036 4.94727 9.32265 4.94727 8.48523C4.94727 7.64531 5.10522 6.93074 5.42113 6.34154C5.73705 5.75234 6.16578 5.30354 6.70735 4.99515C7.24891 4.68426 7.85817 4.52881 8.53512 4.52881C8.98141 4.52881 9.39511 4.59149 9.77621 4.71685C10.1598 4.84221 10.4995 5.02524 10.7954 5.26594C11.0913 5.50412 11.3319 5.79622 11.5175 6.14222C11.7055 6.48822 11.8259 6.88436 11.8785 7.33065Z" fill="#DFDFDF"/>
</svg>
