<svg width="29" height="29" viewBox="0 0 29 29" fill="none" xmlns="http://www.w3.org/2000/svg">
<path d="M13.3891 3.60066C13.8681 2.75644 15.0846 2.75644 15.5636 3.60066L17.9157 7.74641C18.3074 8.43684 18.9784 8.92431 19.756 9.0835L24.4257 10.0394C25.3766 10.2341 25.7526 11.391 25.0977 12.1074L21.8817 15.6255C21.3461 16.2114 21.0898 17.0002 21.1787 17.789L21.7126 22.5255C21.8213 23.49 20.8372 24.205 19.9535 23.8036L15.6137 21.8322C14.891 21.5038 14.0617 21.5038 13.3389 21.8322L8.99922 23.8036C8.1155 24.205 7.13137 23.49 7.24009 22.5255L7.77398 17.789C7.8629 17.0002 7.60662 16.2114 7.07103 15.6255L3.85503 12.1074C3.20015 11.391 3.57605 10.2341 4.52696 10.0394L9.19666 9.0835C9.97434 8.92431 10.6453 8.43683 11.037 7.74641L13.3891 3.60066Z" stroke="black" stroke-width="1.5" stroke-linecap="round" stroke-linejoin="round"/>
</svg>
