<svg width="15" height="15" viewBox="0 0 15 15" fill="none" xmlns="http://www.w3.org/2000/svg">
<path d="M11.6092 4.53344C11.8142 4.32841 11.8142 3.996 11.6092 3.79098C11.4042 3.58595 11.0718 3.58595 10.8668 3.79098L7.91299 6.74475L4.95922 3.79098C4.75419 3.58595 4.42178 3.58595 4.21676 3.79098C4.01173 3.996 4.01173 4.32841 4.21676 4.53344L7.17053 7.48721L4.21676 10.441C4.01173 10.646 4.01173 10.9784 4.21676 11.1834C4.42178 11.3885 4.75419 11.3885 4.95922 11.1834L7.91299 8.22967L10.8668 11.1834C11.0718 11.3885 11.4042 11.3885 11.6092 11.1834C11.8142 10.9784 11.8142 10.646 11.6092 10.441L8.65545 7.48721L11.6092 4.53344Z" fill="white"/>
</svg>
