<svg width="47" height="32" viewBox="0 0 47 32" fill="none" xmlns="http://www.w3.org/2000/svg">
<path d="M46.3993 1.0791H42.7472C40.8983 1.07913 39.6762 1.52731 38.3481 4.98016C37.0201 8.433 35.4708 12.9482 34.8621 14.7742M34.8621 14.7742L31.9571 28.8844C31.7357 29.7698 30.6085 30.5444 29.4797 28.8844C28.3508 27.2244 24.819 21.7463 22.993 18.9243M34.8621 14.7742L31.4507 15.967M22.993 18.9243L31.4507 15.967M22.993 18.9243L21.947 19.2856M14.3617 21.9055L21.947 19.2856M31.4507 5.78656V15.967M21.947 19.2856L10.5845 14.2146C8.95321 13.3764 5.58197 10.5172 5.14697 5.78656" stroke="#7E40BB" stroke-width="1.5"/>
<circle cx="8.00152" cy="24.0699" r="6.8648" stroke="#7E40BB" stroke-width="1.5"/>
<circle cx="8.00167" cy="24.07" r="2.17501" stroke="#7E40BB" stroke-width="1.5"/>
<path d="M1.89844 3.47479C1.89844 2.36742 2.79614 1.46973 3.9035 1.46973H5.30762H29.6121H31.0908C32.1982 1.46973 33.0959 2.36742 33.0959 3.47479V3.47479C33.0959 4.58216 32.1982 5.47985 31.0908 5.47985H29.6121H5.30762H3.9035C2.79614 5.47985 1.89844 4.58216 1.89844 3.47479V3.47479Z" stroke="#7E40BB" stroke-width="1.5"/>
</svg>
