<svg width="46" height="45" viewBox="0 0 46 45" fill="none" xmlns="http://www.w3.org/2000/svg">
<g clip-path="url(#clip0_1311_1392)">
<path d="M14.5909 1.04702C15.4829 2.44993 16.881 3.45651 18.5006 3.86543C18.7537 3.92205 18.9308 4.14224 18.9245 4.40018V12.478C18.9245 12.7359 18.7537 12.9561 18.5006 13.0127C17.9502 13.1448 17.4251 13.3524 16.9316 13.6229C16.7039 13.7613 16.4129 13.711 16.2421 13.5097L11.1113 7.41362C10.9468 7.2123 10.9468 6.9292 11.1113 6.72789C12.2248 5.34384 12.7246 3.56975 12.4905 1.81453C9.05522 3.28665 6.12608 5.72131 4.06366 8.82283C5.67057 9.32611 7.41667 9.194 8.92869 8.43907C9.15644 8.33212 9.42215 8.39503 9.58031 8.59006L14.8313 14.7616C15.0084 14.9504 15.0274 15.2398 14.8692 15.4474C14.5402 15.894 14.2682 16.3784 14.0658 16.8943C13.9645 17.1271 13.7052 17.2592 13.4521 17.1963L5.52506 15.8248C5.27201 15.7871 5.08221 15.5795 5.06323 15.3278C5.0063 13.5852 4.24712 11.9369 2.95653 10.7542C1.60899 13.409 0.913086 16.3344 0.913086 19.2975C0.913086 20.0336 0.944718 20.7759 1.02696 21.5057C2.62123 20.8514 3.89284 19.5869 4.55079 18.0016C4.65201 17.7688 4.9114 17.6367 5.16446 17.6996L13.5533 19.1465V19.2975C13.5533 19.9455 13.6609 20.5872 13.857 21.2037C13.9203 21.4428 13.8127 21.6944 13.5913 21.814L6.58158 25.8529C6.37281 25.9787 6.1071 25.9472 5.92996 25.7774C4.77222 24.5191 3.15897 23.7642 1.45083 23.6824C2.31123 27.2935 4.21549 30.5775 6.92953 33.1317C7.73299 31.5778 7.87217 29.7596 7.31545 28.1051C7.22688 27.8534 7.34708 27.5766 7.58116 27.4571L14.5149 23.4937C14.7427 23.3553 15.0337 23.4056 15.2045 23.6069C16.0839 24.5883 17.248 25.2804 18.5386 25.5886C18.7726 25.6578 18.9308 25.878 18.9245 26.1234V34.3521C18.9245 34.6667 18.6651 34.9246 18.3488 34.9246H9.11848C12.3513 37.1202 16.1598 38.3092 20.0759 38.3533C23.9856 38.3092 27.8005 37.1202 31.0333 34.9246H21.6069C21.2906 34.9246 21.0312 34.6667 21.0312 34.3521V26.1611C21.0312 25.9032 21.202 25.683 21.4551 25.6264C22.7836 25.3433 23.992 24.645 24.903 23.6447C25.0738 23.4434 25.3648 23.393 25.5925 23.5314L32.5263 27.5703C32.7667 27.6899 32.8806 27.9667 32.792 28.2183C32.2669 29.8603 32.4188 31.6407 33.2159 33.1694C35.9363 30.6089 37.8405 27.3124 38.6946 23.6824C36.9485 23.7579 35.3036 24.5254 34.1332 25.8151C33.9624 26.0164 33.6714 26.0667 33.4437 25.9283L26.5099 21.9272C26.2695 21.8077 26.1556 21.5309 26.2442 21.2792C26.4656 20.6438 26.5795 19.9707 26.5858 19.2975V19.1465L34.9747 17.6618C35.2277 17.6052 35.4808 17.731 35.5883 17.9638C36.2399 19.5617 37.5116 20.8388 39.1122 21.5057C39.1944 20.7696 39.2324 20.0336 39.226 19.2975C39.226 16.3344 38.5364 13.4153 37.1952 10.7668C35.911 11.9369 35.1518 13.5663 35.0885 15.3027C35.0759 15.5543 34.8798 15.7619 34.6267 15.7997L26.6997 17.1711C26.4403 17.2215 26.1746 17.0768 26.086 16.8314C25.8646 16.2841 25.5672 15.7745 25.2066 15.309C25.0421 15.1076 25.0421 14.8245 25.2066 14.6232L30.4133 8.52714C30.5651 8.33212 30.8372 8.26921 31.0649 8.37616C32.5959 9.18142 34.3926 9.34499 36.0438 8.83541C33.9814 5.73389 31.0523 3.29923 27.617 1.82711C27.3829 3.55088 27.8511 5.29351 28.9203 6.66498C29.0784 6.87258 29.0594 7.16197 28.8823 7.35071L23.7895 13.4468C23.6313 13.6607 23.334 13.7299 23.0999 13.5978C22.5812 13.321 22.0244 13.1134 21.4551 12.9875C21.202 12.9309 21.0249 12.7107 21.0312 12.4528V4.45051C21.0312 4.19257 21.202 3.97238 21.4551 3.91576C23.1505 3.54459 24.6246 2.51914 25.5546 1.0596C23.7642 0.537438 21.9232 0.26692 20.0696 0.248047C18.2159 0.26692 16.3749 0.537438 14.5909 1.04702Z" fill="#4197DC"/>
<path d="M14.2998 40.8823C14.2429 40.8948 14.1986 40.9011 14.1606 40.9011C14.1227 40.9011 14.091 40.8948 14.0594 40.876C14.0025 40.8508 13.9582 40.8256 13.9329 40.7879C13.9076 40.7502 13.8949 40.7124 13.8949 40.6747C13.8949 40.6306 13.9076 40.5929 13.9265 40.5488C13.9455 40.5048 13.9772 40.4671 14.0151 40.4293C14.036 40.4085 14.0612 40.3878 14.0907 40.3635L14.11 40.3475C14.148 40.3161 14.1859 40.2846 14.2302 40.2469C14.2492 40.2312 14.2697 40.2155 14.2902 40.1998C14.3107 40.1841 14.3315 40.1682 14.3504 40.1525C14.3721 40.1345 14.3939 40.1186 14.4144 40.1035C14.4296 40.0923 14.4445 40.0814 14.458 40.0707L14.6667 40.1588L14.3441 40.5551L14.3061 40.8948L14.2998 40.8823Z" fill="#4197DC"/>
<path d="M13.6735 40.6243C13.6166 40.6369 13.5723 40.6432 13.5343 40.6432C13.4964 40.6432 13.4647 40.6369 13.4331 40.6243C13.3761 40.5992 13.3382 40.574 13.3129 40.5363C13.2876 40.4985 13.2749 40.4608 13.2749 40.4167C13.2749 40.3727 13.2813 40.3349 13.3066 40.2909C13.3255 40.2469 13.3572 40.2091 13.3951 40.1714C13.4161 40.1505 13.4414 40.1297 13.471 40.1053L13.49 40.0896C13.528 40.0581 13.5659 40.0267 13.6102 39.9889C13.6292 39.9732 13.6498 39.9575 13.6703 39.9417C13.6909 39.926 13.7115 39.9103 13.7304 39.8946C13.7522 39.8766 13.7739 39.8606 13.7944 39.8456L13.7953 39.8449C13.8038 39.8387 13.812 39.8326 13.82 39.8266C13.8262 39.822 13.8322 39.8174 13.838 39.8128L14.0468 39.9008L13.7241 40.2972L13.6861 40.6369L13.6735 40.6243Z" fill="#4197DC"/>
<path d="M11.4531 39.2655C11.5354 39.2026 11.6303 39.1397 11.7378 39.0768L11.6935 38.9573C11.5796 38.9824 11.4594 39.0202 11.3519 39.0768C11.2443 39.1271 11.1368 39.2026 11.0419 39.2781C10.947 39.3536 10.8584 39.448 10.7762 39.5549C10.6939 39.6619 10.618 39.7814 10.5611 39.9135C10.5041 40.0456 10.4599 40.1777 10.4346 40.3098C10.4029 40.442 10.3966 40.5678 10.3966 40.6936C10.3966 40.8194 10.4156 40.939 10.4472 41.0585C10.4788 41.178 10.5231 41.2913 10.5801 41.3982L10.7003 41.3542L10.6958 41.3259C10.6784 41.2167 10.6618 41.1129 10.656 41.0144C10.6433 40.9075 10.6433 40.8005 10.656 40.6999C10.6686 40.5929 10.6876 40.4923 10.7192 40.3853C10.7509 40.2847 10.7952 40.1651 10.8521 40.0456C10.9027 39.9261 10.966 39.8191 11.0229 39.7248C11.0799 39.6304 11.1494 39.5486 11.219 39.4731C11.2886 39.3976 11.3709 39.3284 11.4531 39.2655Z" fill="#4197DC"/>
<path d="M12.1994 39.9638C12.1551 39.945 12.1108 39.9261 12.0792 39.9135C12.0412 39.9009 12.0096 39.882 11.9779 39.8632C11.9463 39.8443 11.9147 39.8254 11.883 39.8003C11.8514 39.7751 11.8198 39.7499 11.7881 39.7185C11.804 39.7028 11.8182 39.687 11.8324 39.6713C11.8466 39.6556 11.8609 39.6398 11.8767 39.6241C11.89 39.6076 11.905 39.5911 11.9208 39.5737C11.9352 39.558 11.9503 39.5414 11.9653 39.5235C12.0032 39.5549 12.0349 39.5801 12.0665 39.5989C12.0981 39.6178 12.1298 39.6367 12.1551 39.6556C12.1867 39.6744 12.2183 39.687 12.25 39.6996C12.2812 39.712 12.3248 39.7306 12.3686 39.7493L12.3694 39.7496L12.3702 39.7499L12.5157 39.8066C12.5789 39.8317 12.6422 39.8632 12.6991 39.9072C12.7561 39.945 12.8067 39.9953 12.8383 40.0582C12.87 40.1211 12.8889 40.1903 12.8953 40.2784C12.9016 40.3665 12.8763 40.4608 12.832 40.5741L12.3955 41.6498L12.1234 41.5429L12.5473 40.4986C12.5726 40.4357 12.5916 40.379 12.5979 40.3287C12.6043 40.2784 12.5979 40.2406 12.5916 40.2029C12.5853 40.1651 12.5536 40.1337 12.5157 40.1085L12.5043 40.1009C12.4688 40.0773 12.4272 40.0494 12.3702 40.0267L12.1994 39.9575V39.9638Z" fill="#4197DC"/>
<path d="M15.6948 40.7219C15.6853 40.7423 15.6758 40.7628 15.6663 40.7817L15.932 40.9138C15.9004 41.0207 15.8624 41.1214 15.8181 41.2095C15.7802 41.3038 15.7296 41.3856 15.679 41.4611C15.6284 41.5366 15.5651 41.6058 15.5018 41.6624C15.4386 41.7253 15.3626 41.7757 15.2804 41.8134C15.2718 41.736 15.2601 41.6616 15.2496 41.5941C15.2448 41.5629 15.2401 41.5329 15.2361 41.5051C15.2247 41.4522 15.2179 41.4038 15.2115 41.3586C15.2072 41.3286 15.2032 41.3 15.1982 41.2724C15.1943 41.2298 15.188 41.1921 15.1823 41.1576C15.1787 41.136 15.1753 41.1156 15.1728 41.0962C15.1704 41.0764 15.1669 41.0575 15.1636 41.0396C15.1585 41.0121 15.1539 40.987 15.1539 40.9641C15.1514 40.9496 15.1481 40.936 15.1449 40.9231C15.1397 40.9022 15.1349 40.8828 15.1349 40.8634C15.1328 40.853 15.13 40.8425 15.1272 40.832C15.1215 40.811 15.1159 40.79 15.1159 40.7691C15.1033 40.7187 15.0906 40.6747 15.078 40.6433C15.059 40.6055 15.04 40.5741 15.0147 40.5489C14.9894 40.5174 14.9577 40.486 14.9198 40.4608C14.8871 40.4422 14.8545 40.4203 14.8167 40.3948C14.8033 40.3858 14.7892 40.3763 14.7743 40.3664C14.7585 40.3853 14.7442 40.4026 14.73 40.4199C14.7158 40.4371 14.7015 40.4546 14.6857 40.4734C14.6731 40.4923 14.6588 40.5096 14.6446 40.5269C14.6304 40.5442 14.6161 40.5615 14.6035 40.5803C14.6255 40.5968 14.6451 40.6108 14.6629 40.6235C14.6858 40.6399 14.7059 40.6543 14.7237 40.6684C14.7553 40.6936 14.7743 40.7125 14.7933 40.7376C14.8059 40.7628 14.8186 40.7879 14.8249 40.8131C14.8312 40.8383 14.8375 40.8697 14.8439 40.9138C14.8597 40.9956 14.8739 41.0789 14.8882 41.1623C14.9024 41.2456 14.9166 41.329 14.9324 41.4108C14.9483 41.4926 14.9625 41.5759 14.9767 41.6593C14.991 41.7426 15.0052 41.826 15.021 41.9078C14.9198 41.9329 14.8186 41.9518 14.7237 41.9644L14.6856 41.9691C14.5987 41.98 14.5163 41.9903 14.439 41.9958L14.4706 42.2664C14.5655 42.2601 14.6604 42.2475 14.749 42.2349C14.8375 42.2223 14.9197 42.2035 15.0019 42.1846C15.1158 42.1532 15.2171 42.1217 15.3184 42.0776C15.4133 42.0399 15.5082 41.9833 15.5904 41.9266C15.6663 41.87 15.7422 41.8071 15.8055 41.7379C15.8688 41.6687 15.9257 41.5932 15.9763 41.5177C16.0269 41.4359 16.0712 41.3541 16.1092 41.2724C16.1471 41.1843 16.1788 41.0962 16.2104 41.0081C16.2128 40.9916 16.216 40.9759 16.2192 40.9607C16.2244 40.9357 16.2294 40.9121 16.2294 40.8886L16.2318 40.8721C16.2372 40.835 16.242 40.802 16.242 40.7691L15.7802 40.5426C15.7612 40.5866 15.7422 40.6244 15.7232 40.6621C15.7138 40.681 15.7043 40.7014 15.6948 40.7219Z" fill="#4197DC"/>
<path d="M16.4065 42.8892C16.4951 42.8011 16.5773 42.7193 16.6406 42.6376C16.7102 42.5558 16.7671 42.474 16.824 42.3859C16.881 42.2978 16.9189 42.2035 16.9569 42.0965C16.9948 41.9959 17.0265 41.8763 17.0518 41.7442C17.0771 41.6121 17.0961 41.4926 17.1024 41.3793C17.1024 41.2724 17.1024 41.1654 17.0897 41.0585C17.0771 40.9578 17.0518 40.8572 17.0201 40.7565C16.9885 40.6559 16.9506 40.5489 16.8999 40.4357L17.0012 40.3602C17.0834 40.4483 17.1467 40.5489 17.2099 40.6559C17.2669 40.7628 17.3112 40.8761 17.3428 41.0019C17.3744 41.1214 17.3934 41.2535 17.3934 41.3856C17.3934 41.5177 17.3871 41.6562 17.3554 41.8008C17.3238 41.9455 17.2859 42.0714 17.2289 42.1972C17.172 42.3167 17.1087 42.43 17.0328 42.5306C16.9569 42.6313 16.8683 42.7193 16.7734 42.7948C16.6785 42.8703 16.5773 42.9395 16.4697 42.9899L16.4002 42.8829L16.4065 42.8892Z" fill="#4197DC"/>
<path d="M20.3351 42.128L20.3478 41.0899L20.3604 41.0836L19.0762 41.071V41.5555L19.7974 41.5618V42.0965C19.7974 42.1546 19.7955 42.2071 19.7938 42.255C19.7924 42.2953 19.791 42.3326 19.791 42.367C19.7847 42.4425 19.7784 42.5117 19.7721 42.5683C19.7657 42.6312 19.7594 42.6816 19.7468 42.7382C19.7399 42.769 19.7349 42.7998 19.7297 42.8316C19.7253 42.8583 19.7209 42.8857 19.7151 42.9143L20.2529 43.0024C20.2663 42.9536 20.2765 42.9048 20.2858 42.8603C20.2897 42.8418 20.2934 42.8241 20.2972 42.8074C20.3001 42.7814 20.3043 42.7542 20.3086 42.7262C20.3137 42.6931 20.319 42.659 20.3225 42.6249C20.3288 42.562 20.3351 42.4928 20.3351 42.4173V42.128Z" fill="#4197DC"/>
<path d="M22.0939 41.5365C22.0075 41.548 21.9317 41.5542 21.8615 41.56L21.8408 41.5617C21.7649 41.568 21.6954 41.568 21.6258 41.568C21.5562 41.568 21.4865 41.5617 21.417 41.5491L21.3847 41.5434C21.3227 41.5325 21.2527 41.5201 21.1829 41.4988C21.1924 41.4579 21.2019 41.4186 21.2113 41.3793C21.2208 41.3401 21.2304 41.3005 21.2398 41.2597C21.2461 41.2325 21.2525 41.2059 21.2588 41.1793C21.2715 41.1262 21.2841 41.0731 21.2968 41.0144C21.3853 41.0333 21.4676 41.0458 21.5372 41.0521C21.6068 41.0584 21.6763 41.0647 21.7396 41.0647C21.8029 41.0647 21.8725 41.0647 21.9421 41.0584C22.0022 41.0584 22.0717 41.049 22.1507 41.0384L22.1888 41.0333L22.4861 41.0018C22.619 40.9892 22.7518 40.9892 22.8847 41.0018C23.0175 41.0144 23.1378 41.0584 23.2516 41.1339C23.3592 41.2031 23.4604 41.3101 23.5363 41.4485C23.6186 41.5869 23.6692 41.7756 23.6945 42.0021L23.9349 44.1788L23.3845 44.2354L23.1504 42.1153C23.1378 41.9832 23.1124 41.8763 23.0871 41.7882C23.0555 41.7001 23.0175 41.6309 22.9606 41.5806C22.9037 41.5303 22.8341 41.4988 22.7518 41.4862C22.6696 41.4736 22.562 41.4736 22.4355 41.4862L22.0876 41.524L22.0939 41.5365Z" fill="#4197DC"/>
<path d="M26.3012 43.7636L25.561 40.53L24.4792 40.7754L24.5867 41.2472L25.1308 41.1214L25.7634 43.8832L26.3012 43.7636Z" fill="#4197DC"/>
<path d="M27.4652 40.4168C27.3766 40.4482 27.3007 40.4734 27.2248 40.4985C27.1552 40.5237 27.0856 40.5426 27.016 40.5552C26.9464 40.5677 26.8769 40.5803 26.8073 40.5866C26.7377 40.5929 26.6554 40.5992 26.5669 40.5929V40.0959C26.6402 40.0959 26.706 40.0884 26.7613 40.0821C26.7775 40.0802 26.7929 40.0785 26.8073 40.077C26.8769 40.0707 26.9401 40.0582 27.0034 40.0393C27.0265 40.0324 27.0496 40.0263 27.073 40.0202C27.1137 40.0095 27.1554 39.9986 27.1995 39.9827C27.2365 39.9693 27.2752 39.9559 27.3167 39.9416C27.3533 39.929 27.3921 39.9156 27.4336 39.9009L27.5222 39.8694C27.6487 39.8254 27.7752 39.7939 27.9081 39.7751C28.0409 39.7562 28.1674 39.7751 28.294 39.8128C28.4205 39.8568 28.5344 39.9323 28.6419 40.0456C28.7495 40.1588 28.8444 40.3224 28.9266 40.5363L29.5213 42.1594L30.0717 41.9581L30.2362 42.411L27.402 43.4428L27.2311 42.9898L28.9962 42.3481L28.4268 40.8005C28.3825 40.6747 28.3319 40.574 28.2877 40.4985C28.237 40.423 28.1801 40.3664 28.1168 40.3287C28.0536 40.2909 27.9777 40.2784 27.8954 40.2846C27.8132 40.2909 27.7056 40.3161 27.5854 40.3601L27.4589 40.4042L27.4652 40.4168Z" fill="#4197DC"/>
<path d="M30.7957 38.4213L30.793 38.4162H30.8057L30.7957 38.4213Z" fill="#4197DC"/>
<path d="M30.7957 38.4213L31.2738 39.3347C31.3245 39.4353 31.3688 39.5234 31.4067 39.5926C31.4447 39.6618 31.47 39.7248 31.4953 39.7877C31.5156 39.833 31.5318 39.8825 31.5472 39.9294L31.5585 39.9638C31.5775 40.0204 31.5965 40.0895 31.6154 40.1587L31.103 40.335C31.0841 40.2721 31.0651 40.2155 31.0461 40.1651C31.0271 40.1148 31.0081 40.0582 30.9892 40.0016C30.9702 39.9449 30.9385 39.882 30.9069 39.8191C30.8753 39.7499 30.8373 39.6744 30.7867 39.5801L30.54 39.1019L29.8947 39.4354L29.6669 39.0013L30.7957 38.4213Z" fill="#4197DC"/>
<path d="M33.0324 38.7748C32.8299 38.7244 32.6528 38.6678 32.4946 38.6112C32.3365 38.5546 32.2036 38.4917 32.0897 38.4287C31.9695 38.3595 31.8746 38.2966 31.7924 38.24C31.7281 38.1921 31.6638 38.1396 31.6034 38.0903L31.571 38.0639C31.6153 37.9947 31.6659 37.9192 31.7228 37.85C31.7797 37.7745 31.8367 37.7053 31.8999 37.6361C31.9094 37.6455 31.9205 37.6534 31.9316 37.6612C31.9381 37.6659 31.9446 37.6705 31.9509 37.6755C31.9552 37.6789 31.9593 37.6825 31.9632 37.6864C31.9782 37.7013 31.9932 37.7123 32.0114 37.7256L32.0265 37.7367C32.0834 37.7808 32.1403 37.8248 32.2036 37.8688C32.2669 37.9129 32.3365 37.9569 32.4187 37.9947C32.501 38.0387 32.5958 38.0827 32.7034 38.1268C32.8109 38.1708 32.9438 38.2148 33.0956 38.2589C33.1157 38.2639 33.1348 38.2699 33.1533 38.2757C33.1813 38.2844 33.2082 38.2928 33.2348 38.2966C33.2791 38.3092 33.3297 38.3218 33.3803 38.3344C33.4131 38.3416 33.448 38.351 33.4862 38.3612C33.5144 38.3687 33.5443 38.3767 33.5764 38.3847L33.6218 38.3961C33.6894 38.4131 33.7701 38.4335 33.8675 38.4539C33.8991 38.3847 33.9181 38.3155 33.9307 38.2526C33.9434 38.1897 33.9497 38.1205 33.9497 38.0513C33.9497 37.9821 33.9434 37.9129 33.9307 37.8374C33.9181 37.7619 33.8991 37.6801 33.8738 37.5857C33.8632 37.5489 33.8537 37.5132 33.8444 37.4781L33.8441 37.4768C33.8313 37.4285 33.8188 37.3812 33.8042 37.3341C33.7915 37.2932 33.7789 37.2539 33.7662 37.2145C33.7537 37.1755 33.7409 37.1357 33.7283 37.095L33.2791 37.2397L33.1336 36.8119L33.9877 36.5225L34.2028 36.8685C34.2293 36.9388 34.2527 37.0153 34.2773 37.0957L34.2979 37.1624L34.3103 37.202C34.3219 37.2458 34.3335 37.2888 34.3448 37.3306C34.3643 37.4028 34.3829 37.4716 34.3989 37.5354C34.4209 37.6283 34.4333 37.7165 34.4445 37.7958L34.4495 37.8311C34.4621 37.9192 34.4622 38.0072 34.4622 38.089C34.4622 38.1708 34.4432 38.2526 34.4242 38.3344C34.4052 38.4161 34.3736 38.4979 34.3356 38.5797L35.4111 38.8691C35.4231 38.8929 35.4364 38.9166 35.4505 38.9417C35.4663 38.9698 35.483 38.9995 35.4997 39.0327C35.5267 39.0864 35.5537 39.1539 35.5847 39.2313L35.6009 39.2717L33.5258 40.6998L33.2475 40.3035L34.7848 39.2466L33.045 38.7936L33.0324 38.7748Z" fill="#4197DC"/>
<path d="M37.5106 33.4701L37.5114 33.4714L37.4988 33.4777L37.5106 33.4701Z" fill="#4197DC"/>
<path d="M37.5106 33.4701C37.4887 33.4359 37.4653 33.4018 37.4419 33.3676C37.4181 33.333 37.3944 33.2984 37.3722 33.2638L37.2394 33.0562L38.0492 32.5214C38.1124 32.5655 38.1694 32.6095 38.2263 32.6598C38.2833 32.7039 38.3402 32.7542 38.3971 32.8045C38.5173 32.9366 38.6312 33.075 38.7324 33.2197C38.8337 33.3644 38.9222 33.5154 39.0045 33.6727C39.0867 33.83 39.15 33.9935 39.2006 34.1634C39.2512 34.3333 39.2828 34.5094 39.3018 34.6919C39.3208 34.8869 39.3145 35.0819 39.2892 35.2832C39.2639 35.4845 39.2196 35.6921 39.1626 35.8998C39.1183 36.0507 39.0677 36.208 39.0045 36.3653C38.9412 36.5226 38.8716 36.6798 38.7894 36.8497L38.3149 36.6421C38.3908 36.4848 38.4604 36.3213 38.53 36.1514C38.5996 35.9815 38.6628 35.7991 38.7198 35.6104C38.4161 35.4971 38.1188 35.3839 37.8214 35.2706C37.5241 35.1574 37.2267 35.0442 36.9231 34.9309C36.8472 34.8995 36.7839 34.8806 36.7333 34.868C36.6827 34.8554 36.6321 34.8491 36.5814 34.8491C36.5308 34.8491 36.4676 34.868 36.4043 34.8932L36.3742 34.9053L36.3284 34.924C36.2758 34.9456 36.2123 34.9716 36.1386 35.0001C36.1228 34.9592 36.107 34.9199 36.0911 34.8806C36.0753 34.8413 36.0595 34.802 36.0437 34.7611C36.0121 34.6793 35.9804 34.5975 35.9551 34.5157C36.069 34.4591 36.1639 34.4151 36.2525 34.3773C36.3347 34.3396 36.417 34.3144 36.4929 34.3018C36.5625 34.2829 36.6321 34.2829 36.708 34.2892C36.7776 34.2955 36.8598 34.3144 36.9484 34.3521C36.984 34.364 37.0197 34.3782 37.0537 34.3919C37.0741 34.4 37.094 34.408 37.1129 34.4151C37.1698 34.4339 37.233 34.4591 37.2963 34.4842C37.3659 34.5094 37.4418 34.5409 37.5304 34.5786C37.5746 34.5975 37.622 34.6163 37.6734 34.6367C37.7248 34.6572 37.7803 34.6793 37.8404 34.7044C37.888 34.7244 37.9387 34.7443 37.9923 34.7655C38.0739 34.7976 38.1625 34.8325 38.258 34.8743L38.3486 34.9106L38.4477 34.9505C38.5581 34.9951 38.6783 35.0436 38.8084 35.0945C38.821 34.9183 38.8084 34.7548 38.7767 34.5912C38.7451 34.4276 38.6881 34.2641 38.6186 34.1068C38.5426 33.9495 38.4541 33.7922 38.3465 33.6412C38.239 33.4903 38.1124 33.333 37.9669 33.1757L37.5106 33.4701Z" fill="#4197DC"/>
<path d="M39.1123 31.4394C39.0949 31.4653 39.0783 31.4912 39.0622 31.5163C39.0314 31.5643 39.0021 31.6099 38.9731 31.647L38.9533 31.6753C38.9171 31.727 38.8841 31.7742 38.8466 31.8169C38.8023 31.8672 38.7517 31.9238 38.7011 31.9678C38.6505 32.0182 38.5872 32.0685 38.5113 32.1188L38.3595 31.9301C38.3088 31.8672 38.2582 31.8043 38.2013 31.7351C38.2287 31.7103 38.2552 31.6874 38.2803 31.6657C38.3187 31.6326 38.3542 31.6019 38.3848 31.5715C38.4354 31.5212 38.4797 31.4708 38.5176 31.4205L38.5406 31.3902C38.5727 31.348 38.6073 31.3025 38.6378 31.2569C38.6497 31.2393 38.6627 31.2204 38.6766 31.2003C38.7073 31.1559 38.7422 31.1056 38.777 31.0493L39.7513 29.5206L40.1625 29.7785L39.8145 30.3196L42.2186 31.842L41.9212 32.3076L39.5172 30.7851L39.0997 31.4331L39.1123 31.4394Z" fill="#4197DC"/>
<path d="M40.5862 27.8219V27.8156L40.0421 28.9669L40.4849 29.1745L40.7949 28.5202L41.2951 28.7528C41.3845 28.7942 41.4621 28.8302 41.5225 28.8662C41.5921 28.904 41.649 28.9355 41.6996 28.9669C41.7502 28.9984 41.8008 29.0298 41.8451 29.0613C41.863 29.074 41.8819 29.0866 41.9014 29.0997C41.9302 29.1191 41.9604 29.1394 41.9906 29.1619L42.2943 28.709C42.231 28.6649 42.1804 28.6272 42.1298 28.5894C42.1045 28.5737 42.0776 28.5564 42.0507 28.5391C42.0238 28.5218 41.9969 28.5045 41.9716 28.4888C41.9365 28.4669 41.8952 28.4451 41.8499 28.4211C41.8301 28.4106 41.8094 28.3996 41.7882 28.3881C41.7265 28.3547 41.6549 28.3212 41.5646 28.2791L40.5862 27.8219Z" fill="#4197DC"/>
<path d="M40.2508 26.1548L40.2546 26.1561L40.0863 26.6707L41.4148 27.1048L42.0159 25.2929L42.7181 25.5257C42.832 25.5634 42.9269 25.6075 43.0091 25.6578C43.0913 25.7144 43.1673 25.7773 43.2305 25.8403C43.2938 25.9032 43.3507 25.9787 43.4077 26.0604C43.4646 26.1422 43.5152 26.224 43.5722 26.3184L44.1226 27.262L44.5781 27.0041L44.0023 25.9975C43.8505 25.7396 43.686 25.5257 43.5026 25.3621C43.3191 25.1986 43.1103 25.079 42.8699 24.9972L42.212 24.7833C42.1961 24.7781 42.1814 24.7739 42.1673 24.77C42.1476 24.7644 42.1292 24.7592 42.1107 24.7519C42.1058 24.7509 42.1007 24.7498 42.0955 24.7485C42.0865 24.7464 42.0772 24.744 42.0675 24.7414C42.0469 24.7361 42.025 24.7303 42.0032 24.7267C41.9732 24.7267 41.9432 24.7228 41.9069 24.718L41.8767 24.7141C41.8261 24.7079 41.7691 24.7016 41.6932 24.7016L41.1175 26.4379L40.2546 26.1561L40.2571 26.1485L40.2508 26.1548Z" fill="#4197DC"/>
<path d="M45.5051 22.2382C45.5479 22.2433 45.5874 22.248 45.6222 22.248L45.6286 22.2292L45.6728 21.6818L45.6189 21.6758C45.5285 21.6655 45.4507 21.6567 45.3818 21.6567C45.2996 21.6504 45.23 21.6441 45.1604 21.6378C45.0981 21.6313 45.0342 21.6265 44.9694 21.6216C44.9091 21.617 44.8481 21.6124 44.7871 21.6064C44.6606 21.6001 44.5404 21.5812 44.4203 21.5623C44.3001 21.5434 44.1925 21.512 44.0849 21.4742C43.9774 21.4365 43.8888 21.3799 43.8129 21.3107L45.9196 19.7756L45.6032 19.3667L44.648 20.0524L44.6254 20.0218C44.5646 19.9391 44.5082 19.8624 44.4518 19.8008C44.3886 19.7316 44.319 19.6687 44.2431 19.6184C44.1671 19.568 44.0786 19.5177 43.9837 19.4737C43.8888 19.4296 43.7749 19.3856 43.6421 19.3353C43.5345 19.2975 43.4269 19.2598 43.3067 19.2157C43.2085 19.1797 43.1187 19.1521 43.0339 19.1261L42.9778 19.1088L42.5602 19.0962L42.3388 19.9707L42.7817 20.0902L42.9082 19.6372C42.9904 19.6624 43.0727 19.6876 43.1549 19.719C43.196 19.7347 43.2372 19.7489 43.2783 19.7631C43.3194 19.7772 43.3605 19.7914 43.4016 19.8071C43.4965 19.8448 43.5787 19.8762 43.6608 19.9077C43.7368 19.9391 43.8129 19.977 43.8825 20.0147C43.952 20.0524 44.0153 20.1028 44.0723 20.1531C44.1355 20.2097 44.1861 20.2726 44.2367 20.3544L44.2178 20.367C44.1682 20.4039 44.1226 20.439 44.0804 20.4713C44.0149 20.5215 43.9578 20.5653 43.9078 20.5998L43.8586 20.6375C43.7994 20.6832 43.7504 20.7209 43.7053 20.7508C43.6761 20.7762 43.6468 20.7975 43.62 20.8169L43.6065 20.8268L43.5926 20.837C43.5864 20.8417 43.5803 20.8463 43.5746 20.8509L43.5661 20.8577C43.5419 20.8715 43.5195 20.8871 43.496 20.9037C43.4765 20.9173 43.4562 20.9315 43.4333 20.9458L43.3645 20.9882C43.2588 21.0535 43.1624 21.113 43.079 21.1597C42.9778 21.2163 42.8829 21.2603 42.8006 21.2981C42.7121 21.3358 42.6361 21.3673 42.5666 21.3862C42.5202 21.4029 42.4738 21.4141 42.4274 21.4253C42.4042 21.4309 42.381 21.4365 42.3578 21.4428C42.3493 21.4449 42.3409 21.4477 42.3325 21.4505C42.3156 21.4561 42.2987 21.4617 42.2819 21.4617L42.2059 21.4805C42.2154 21.5245 42.2249 21.5701 42.2344 21.6157C42.2439 21.6613 42.2534 21.7071 42.2629 21.751C42.2882 21.8391 42.3135 21.9272 42.3388 22.0027L42.371 21.9969C42.4315 21.9861 42.4959 21.9747 42.5602 21.9587C42.6361 21.9398 42.7184 21.9146 42.7943 21.8895C42.8639 21.8643 42.9525 21.8265 43.041 21.7825C43.1196 21.7434 43.2081 21.6945 43.3066 21.64L43.3447 21.6189C43.427 21.6944 43.5092 21.7636 43.5914 21.8265C43.6737 21.8895 43.7623 21.9398 43.8635 21.9838C43.9647 22.0279 44.0723 22.0593 44.1988 22.0908C44.319 22.1222 44.4645 22.1411 44.6227 22.16L44.901 22.1851C44.9508 22.1884 44.9989 22.1935 45.0462 22.1984C45.0889 22.2029 45.131 22.2073 45.173 22.2103C45.2616 22.2166 45.3439 22.2229 45.4198 22.2292C45.4493 22.2316 45.4779 22.235 45.5051 22.2382Z" fill="#4197DC"/>
<path d="M42.3511 16.9824L42.4587 16.9635C42.4839 16.9589 42.5132 16.9544 42.5463 16.9492C42.6048 16.9402 42.6754 16.9292 42.756 16.9132C42.8826 16.8943 43.0281 16.8691 43.1926 16.8377C43.3147 16.819 43.4473 16.7968 43.5852 16.7738L43.5864 16.7736L43.5872 16.7734L43.7303 16.7496C43.8138 16.7362 43.8972 16.7217 43.9816 16.707C44.0956 16.6872 44.2114 16.667 44.3313 16.6489C44.5117 16.6163 44.692 16.5884 44.8683 16.5611L44.8692 16.561L44.9513 16.5483C44.9929 16.5428 45.0309 16.5373 45.0652 16.5323C45.109 16.5259 45.1471 16.5204 45.1791 16.5168C45.236 16.5105 45.2929 16.5042 45.3436 16.498C45.377 16.4938 45.4078 16.4951 45.4394 16.4965C45.4556 16.4972 45.4719 16.498 45.4891 16.498C45.5333 16.498 45.5966 16.498 45.6662 16.5042L45.7927 18.3853L45.3056 18.4167L45.217 17.0453L42.8762 17.4416L42.9268 18.2154L42.4397 18.2469L42.3575 16.9824H42.3511Z" fill="#4197DC"/>
<path d="M42.6039 15.1711C42.595 15.118 42.5852 15.0593 42.5725 15.0007L42.5789 15.007L42.427 14.252L45.217 13.6858L45.1094 13.1511L42.3195 13.7173L42.193 13.0882L41.7122 13.1826L42.0728 14.9566C42.0852 15.0185 42.0949 15.0749 42.1037 15.1259C42.1083 15.1525 42.1127 15.1783 42.117 15.202C42.1286 15.265 42.1348 15.3279 42.1406 15.3862L42.1423 15.4033C42.1487 15.4662 42.155 15.5354 42.1487 15.6046C42.1463 15.6302 42.1449 15.6574 42.1433 15.6864C42.1406 15.7359 42.1377 15.7905 42.1297 15.85C42.1708 15.8563 42.2118 15.861 42.2529 15.8657C42.294 15.8704 42.3353 15.8751 42.3764 15.8814C42.4523 15.8877 42.5346 15.9003 42.6168 15.9129L42.6198 15.8926C42.6314 15.8122 42.6421 15.7377 42.6421 15.6738V15.4599L42.6407 15.4439C42.6348 15.3792 42.6285 15.3099 42.6168 15.246C42.6126 15.223 42.6084 15.1977 42.6039 15.1711Z" fill="#4197DC"/>
<path fill-rule="evenodd" clip-rule="evenodd" d="M40.8583 10.8926C40.7887 10.7102 40.7508 10.5529 40.7508 10.4019C40.7508 10.2509 40.7761 10.1188 40.8394 9.99928C40.8836 9.9175 40.9469 9.842 41.0228 9.7728C41.1051 9.7036 41.1936 9.6344 41.2885 9.57778C41.3834 9.52116 41.4847 9.46454 41.5922 9.41421C41.6998 9.36388 41.801 9.31984 41.9022 9.28209C42.0604 9.22548 42.2249 9.16885 42.3957 9.12482C42.6044 9.07449 42.8006 9.04932 42.984 9.06191C43.1675 9.0682 43.332 9.11223 43.4775 9.17515C43.623 9.24435 43.7559 9.33871 43.8697 9.46454C43.9836 9.59036 44.0722 9.74135 44.1418 9.92379C44.2303 10.1566 44.2683 10.3642 44.2493 10.5592C44.2367 10.7542 44.1797 10.9241 44.0848 11.0751C43.9899 11.226 43.8571 11.3645 43.6926 11.4777C43.5281 11.5972 43.3383 11.6916 43.1295 11.7734C43.0093 11.8174 42.8828 11.8552 42.7563 11.8929C42.6234 11.9244 42.4842 11.9495 42.3324 11.9621C42.3005 11.9621 42.2694 11.9628 42.2385 11.9635C42.1773 11.9649 42.1171 11.9663 42.054 11.9621C41.9655 11.9621 41.8706 11.9495 41.782 11.9306C41.8073 12.0187 41.8326 12.1131 41.8453 12.2012C41.8579 12.2892 41.8642 12.3899 41.8642 12.5031H41.6175C41.5353 12.5031 41.453 12.5031 41.3645 12.5094C41.3645 12.4151 41.3518 12.3333 41.3391 12.2704C41.3328 12.2389 41.3265 12.2058 41.3201 12.1727L41.32 12.1719C41.3137 12.1392 41.3075 12.1065 41.3012 12.0753C41.2822 12.0124 41.2632 11.9495 41.2443 11.8803L41.2276 11.8343C41.2074 11.7778 41.1854 11.7165 41.1557 11.6476L40.8583 10.8675V10.8926ZM41.5922 11.4399C41.763 11.4777 41.9275 11.4903 42.1046 11.4777C42.2755 11.4651 42.44 11.4337 42.5981 11.3896C42.6297 11.3802 42.6597 11.3708 42.6897 11.3613C42.7198 11.3519 42.7499 11.3424 42.7816 11.333C42.8132 11.3236 42.8433 11.3125 42.8733 11.3015C42.9034 11.2905 42.9334 11.2795 42.965 11.2701C43.1042 11.2198 43.2244 11.1568 43.3383 11.0939C43.4522 11.0247 43.5471 10.9429 43.6103 10.8486C43.6863 10.7479 43.7305 10.6347 43.7495 10.5089C43.7685 10.383 43.7495 10.2572 43.6926 10.1188C43.6546 10.0182 43.5977 9.93008 43.5344 9.85458C43.4712 9.77909 43.3889 9.72247 43.3003 9.67843C43.2118 9.6344 43.1106 9.60923 43.003 9.60294C42.8955 9.59665 42.7753 9.60294 42.6487 9.6344C42.613 9.64387 42.5782 9.65335 42.5446 9.66249C42.4889 9.67762 42.4367 9.69183 42.3893 9.7036C42.3071 9.72876 42.2312 9.75393 42.1616 9.77909C42.054 9.81684 41.9591 9.86088 41.8642 9.90491C41.7693 9.94895 41.6744 9.99928 41.5796 10.0559C41.4973 10.0999 41.434 10.144 41.3898 10.188C41.3391 10.2321 41.3075 10.2824 41.2885 10.339C41.2696 10.3956 41.2696 10.4585 41.2759 10.534C41.2885 10.6095 41.3138 10.6976 41.3518 10.7983L41.5922 11.4337V11.4399Z" fill="#4197DC"/>
<path d="M40.1381 8.2354C40.1152 8.19659 40.0913 8.15608 40.0674 8.1119H40.0737L39.7384 7.5457C39.6688 7.43246 39.6245 7.33181 39.6055 7.25002C39.5802 7.16824 39.5802 7.09274 39.6055 7.02354C39.6308 6.95434 39.6751 6.89143 39.7447 6.82852C39.8143 6.76561 39.9092 6.7027 40.0231 6.63349L41.8704 5.55771L41.592 5.08588L39.6878 6.19312C39.4917 6.31265 39.3398 6.43847 39.2449 6.56429C39.15 6.69011 39.0931 6.82223 39.0741 6.94805C39.0488 7.08016 39.0615 7.21227 39.0994 7.3381C39.1374 7.47021 39.188 7.58974 39.2576 7.70298L39.5739 8.23773C39.5813 8.24966 39.5885 8.26133 39.5956 8.27275C39.6372 8.33957 39.6734 8.39789 39.7004 8.45162C39.732 8.51448 39.7637 8.57749 39.789 8.63406C39.8143 8.69698 39.8396 8.75989 39.8586 8.8228L39.8627 8.83627C39.8811 8.89718 39.9042 8.97365 39.9219 9.05557C39.963 9.04613 40.0041 9.03827 40.0452 9.03041C40.0863 9.02254 40.1275 9.01468 40.1686 9.00524C40.2097 8.99895 40.2493 8.99109 40.2888 8.98322C40.3283 8.97536 40.3679 8.96749 40.409 8.9612C40.3963 8.87313 40.3774 8.79763 40.3584 8.72843C40.3394 8.65923 40.3141 8.59003 40.2888 8.52712C40.2635 8.4642 40.2319 8.40129 40.1939 8.33209C40.1764 8.30027 40.1577 8.26845 40.1381 8.2354Z" fill="#4197DC"/>
<path d="M41.9528 7.99897C41.9942 7.97622 42.0389 7.95172 42.0855 7.92317L42.9586 7.41988L42.6802 6.94805L41.8198 7.44505C41.7585 7.48063 41.7012 7.5121 41.6515 7.53947C41.6397 7.54597 41.6283 7.55225 41.6173 7.55829C41.5604 7.58974 41.5035 7.6212 41.4465 7.64636C41.4086 7.66733 41.3706 7.68271 41.3327 7.69809C41.3137 7.70578 41.2947 7.71347 41.2757 7.72185C41.2188 7.74702 41.1555 7.77218 41.0796 7.79735C41.0954 7.83824 41.1128 7.8807 41.1302 7.92317C41.1476 7.96563 41.165 8.0081 41.1808 8.04899C41.1966 8.08987 41.214 8.13231 41.2314 8.17476C41.2488 8.21724 41.2662 8.25973 41.282 8.30064C41.3643 8.27547 41.4339 8.25031 41.4971 8.22514C41.5384 8.20875 41.5796 8.18968 41.6191 8.17142C41.6402 8.16166 41.6608 8.15213 41.6806 8.14336C41.7376 8.11819 41.8008 8.08674 41.8641 8.04899C41.8915 8.03266 41.9212 8.01632 41.9528 7.99897Z" fill="#4197DC"/>
</g>
<defs>
<clipPath id="clip0_1311_1392">
<rect width="45" height="44" fill="white" transform="translate(0.913086 0.248047)"/>
</clipPath>
</defs>
</svg>
